<svg xmlns="http://www.w3.org/2000/svg" xmlns:xlink="http://www.w3.org/1999/xlink" width="78" zoomAndPan="magnify" viewBox="0 0 58.5 58.499999" height="78" preserveAspectRatio="xMidYMid meet" version="1.0"><defs><clipPath id="9203332af5"><path d="M 15.695312 7.664062 L 41.722656 7.664062 L 41.722656 49.308594 L 15.695312 49.308594 Z M 15.695312 7.664062 " clip-rule="nonzero"/></clipPath></defs><g clip-path="url(#9203332af5)"><path fill="#00bf63" d="M 40.808594 30.984375 C 40.261719 29.898438 39.507812 28.960938 38.539062 28.179688 C 37.570312 27.398438 36.417969 26.71875 35.082031 26.144531 C 33.75 25.570312 32.292969 25.023438 30.710938 24.5 C 29.890625 24.234375 29.171875 23.984375 28.554688 23.753906 C 27.933594 23.523438 27.417969 23.277344 27 23.015625 C 26.582031 22.753906 26.269531 22.46875 26.0625 22.164062 C 25.851562 21.859375 25.746094 21.496094 25.746094 21.082031 C 25.746094 20.664062 25.84375 20.308594 26.039062 20.019531 C 26.230469 19.726562 26.492188 19.492188 26.820312 19.3125 C 27.148438 19.136719 27.53125 19.003906 27.960938 18.921875 C 28.394531 18.839844 28.855469 18.800781 29.347656 18.800781 C 29.824219 18.800781 30.292969 18.871094 30.757812 19.011719 C 31.21875 19.152344 31.65625 19.332031 32.074219 19.546875 C 32.492188 19.765625 32.882812 20.007812 33.25 20.273438 C 33.613281 20.542969 33.945312 20.804688 34.246094 21.058594 L 34.445312 21.238281 C 34.65625 21.414062 34.84375 21.566406 35.015625 21.683594 C 35.1875 21.804688 35.378906 21.863281 35.585938 21.863281 C 35.839844 21.863281 36.09375 21.738281 36.347656 21.484375 L 39.769531 17.835938 C 39.960938 17.628906 40.105469 17.441406 40.203125 17.277344 C 40.300781 17.113281 40.347656 16.9375 40.347656 16.742188 C 40.347656 16.546875 40.25 16.316406 40.046875 16.050781 C 39.847656 15.78125 39.574219 15.496094 39.230469 15.199219 C 38.886719 14.902344 38.488281 14.59375 38.035156 14.273438 C 37.582031 13.953125 37.097656 13.640625 36.59375 13.34375 C 35.800781 12.910156 35.007812 12.558594 34.210938 12.28125 C 33.414062 12.007812 32.597656 11.792969 31.761719 11.644531 L 31.761719 8.648438 C 31.761719 8.351562 31.640625 8.109375 31.394531 7.933594 C 31.148438 7.753906 30.914062 7.664062 30.6875 7.664062 L 26.484375 7.664062 C 26.15625 7.664062 25.910156 7.761719 25.746094 7.953125 C 25.582031 8.148438 25.503906 8.378906 25.503906 8.648438 L 25.503906 11.757812 C 24.207031 12.007812 23.039062 12.402344 22.003906 12.929688 C 20.964844 13.460938 20.089844 14.105469 19.375 14.863281 C 18.660156 15.625 18.109375 16.488281 17.71875 17.457031 C 17.332031 18.425781 17.136719 19.484375 17.136719 20.632812 C 17.136719 21.945312 17.363281 23.132812 17.808594 24.199219 C 18.257812 25.265625 18.929688 26.242188 19.820312 27.128906 C 20.714844 28.015625 21.835938 28.820312 23.175781 29.542969 C 24.519531 30.265625 26.082031 30.941406 27.871094 31.566406 C 28.273438 31.703125 28.75 31.871094 29.300781 32.070312 C 29.855469 32.273438 30.382812 32.515625 30.890625 32.796875 C 31.398438 33.082031 31.824219 33.40625 32.175781 33.769531 C 32.527344 34.136719 32.703125 34.550781 32.703125 35.011719 C 32.703125 35.429688 32.636719 35.824219 32.511719 36.195312 C 32.382812 36.570312 32.171875 36.898438 31.875 37.179688 C 31.578125 37.464844 31.167969 37.691406 30.65625 37.863281 C 30.140625 38.035156 29.503906 38.121094 28.742188 38.121094 C 27.925781 38.121094 27.140625 37.976562 26.398438 37.695312 C 25.652344 37.410156 24.898438 37.015625 24.136719 36.507812 C 23.628906 36.167969 23.179688 35.820312 22.785156 35.46875 C 22.390625 35.121094 22.066406 34.839844 21.8125 34.628906 C 21.601562 34.453125 21.425781 34.316406 21.273438 34.226562 C 21.125 34.136719 20.984375 34.09375 20.851562 34.09375 C 20.65625 34.09375 20.402344 34.207031 20.089844 34.429688 L 16.222656 38.121094 C 15.878906 38.433594 15.707031 38.714844 15.707031 38.96875 C 15.707031 39.191406 15.878906 39.492188 16.222656 39.863281 C 16.238281 39.878906 16.25 39.890625 16.265625 39.898438 C 16.28125 39.90625 16.296875 39.921875 16.3125 39.953125 C 16.324219 39.96875 16.339844 39.976562 16.355469 39.988281 C 16.371094 39.992188 16.386719 40.011719 16.402344 40.042969 L 16.46875 40.109375 C 16.707031 40.363281 17.03125 40.699219 17.441406 41.113281 C 17.851562 41.53125 18.355469 41.957031 18.949219 42.390625 C 19.933594 43.105469 20.976562 43.722656 22.082031 44.246094 C 23.183594 44.769531 24.324219 45.15625 25.503906 45.410156 L 25.503906 48.671875 C 25.503906 49.328125 25.828125 49.65625 26.484375 49.65625 L 30.6875 49.65625 C 31.40625 49.65625 31.761719 49.328125 31.761719 48.671875 L 31.761719 45.476562 C 33.195312 45.222656 34.507812 44.792969 35.710938 44.191406 C 36.910156 43.585938 37.949219 42.828125 38.828125 41.921875 C 39.707031 41.011719 40.394531 39.972656 40.886719 38.800781 C 41.378906 37.632812 41.625 36.34375 41.625 34.945312 C 41.625 33.394531 41.351562 32.074219 40.808594 30.984375 " fill-opacity="1" fill-rule="nonzero"/></g></svg>