<svg xmlns="http://www.w3.org/2000/svg" xmlns:xlink="http://www.w3.org/1999/xlink" width="227" zoomAndPan="magnify" viewBox="0 0 170.25 60" height="80" preserveAspectRatio="xMidYMid meet" version="1.0"><defs><g/><clipPath id="f473c8e663"><path d="M 0 8.78125 L 26.136719 8.78125 L 26.136719 50.597656 L 0 50.597656 Z M 0 8.78125 " clip-rule="nonzero"/></clipPath><clipPath id="7cebd77c9b"><rect x="0" width="123" y="0" height="43"/></clipPath></defs><g clip-path="url(#f473c8e663)"><path fill="#00bf63" d="M 25.214844 32.199219 C 24.667969 31.105469 23.90625 30.167969 22.933594 29.382812 C 21.960938 28.597656 20.804688 27.914062 19.464844 27.339844 C 18.125 26.761719 16.664062 26.210938 15.078125 25.6875 C 14.253906 25.417969 13.53125 25.167969 12.910156 24.9375 C 12.289062 24.703125 11.769531 24.457031 11.351562 24.195312 C 10.929688 23.933594 10.617188 23.648438 10.40625 23.34375 C 10.195312 23.035156 10.09375 22.671875 10.09375 22.253906 C 10.09375 21.835938 10.191406 21.480469 10.382812 21.1875 C 10.578125 20.894531 10.839844 20.660156 11.171875 20.480469 C 11.5 20.300781 11.882812 20.167969 12.316406 20.085938 C 12.75 20.003906 13.214844 19.964844 13.707031 19.964844 C 14.1875 19.964844 14.65625 20.035156 15.121094 20.175781 C 15.585938 20.320312 16.027344 20.5 16.445312 20.714844 C 16.867188 20.933594 17.257812 21.175781 17.625 21.445312 C 17.992188 21.714844 18.324219 21.976562 18.625 22.230469 L 18.828125 22.410156 C 19.035156 22.589844 19.226562 22.738281 19.398438 22.859375 C 19.570312 22.980469 19.761719 23.039062 19.972656 23.039062 C 20.226562 23.039062 20.480469 22.910156 20.734375 22.65625 L 24.171875 18.996094 C 24.363281 18.789062 24.511719 18.601562 24.609375 18.4375 C 24.707031 18.273438 24.753906 18.09375 24.753906 17.898438 C 24.753906 17.703125 24.652344 17.46875 24.449219 17.203125 C 24.25 16.933594 23.976562 16.648438 23.632812 16.347656 C 23.285156 16.050781 22.886719 15.738281 22.429688 15.417969 C 21.972656 15.09375 21.492188 14.785156 20.980469 14.484375 C 20.1875 14.050781 19.390625 13.695312 18.589844 13.417969 C 17.789062 13.140625 16.972656 12.929688 16.132812 12.777344 L 16.132812 9.769531 C 16.132812 9.46875 16.007812 9.230469 15.761719 9.050781 C 15.515625 8.871094 15.277344 8.78125 15.054688 8.78125 L 10.832031 8.78125 C 10.503906 8.78125 10.257812 8.878906 10.09375 9.074219 C 9.929688 9.269531 9.847656 9.5 9.847656 9.769531 L 9.847656 12.890625 C 8.542969 13.144531 7.371094 13.539062 6.332031 14.070312 C 5.292969 14.601562 4.414062 15.246094 3.695312 16.011719 C 2.976562 16.773438 2.421875 17.644531 2.03125 18.617188 C 1.644531 19.589844 1.449219 20.652344 1.449219 21.804688 C 1.449219 23.121094 1.671875 24.316406 2.121094 25.386719 C 2.570312 26.457031 3.246094 27.4375 4.140625 28.328125 C 5.039062 29.21875 6.164062 30.027344 7.511719 30.75 C 8.855469 31.476562 10.429688 32.15625 12.226562 32.785156 C 12.628906 32.917969 13.109375 33.085938 13.660156 33.289062 C 14.214844 33.492188 14.746094 33.734375 15.257812 34.019531 C 15.765625 34.304688 16.195312 34.628906 16.546875 34.996094 C 16.898438 35.363281 17.074219 35.777344 17.074219 36.242188 C 17.074219 36.660156 17.011719 37.058594 16.882812 37.429688 C 16.757812 37.804688 16.542969 38.132812 16.246094 38.417969 C 15.945312 38.703125 15.535156 38.933594 15.019531 39.105469 C 14.503906 39.277344 13.863281 39.363281 13.101562 39.363281 C 12.277344 39.363281 11.492188 39.21875 10.742188 38.9375 C 9.996094 38.652344 9.238281 38.253906 8.476562 37.746094 C 7.964844 37.402344 7.511719 37.054688 7.117188 36.703125 C 6.71875 36.351562 6.394531 36.070312 6.140625 35.859375 C 5.929688 35.679688 5.75 35.546875 5.601562 35.453125 C 5.453125 35.367188 5.308594 35.320312 5.175781 35.320312 C 4.980469 35.320312 4.726562 35.433594 4.414062 35.65625 L 0.527344 39.363281 C 0.183594 39.675781 0.0117188 39.960938 0.0117188 40.214844 C 0.0117188 40.441406 0.183594 40.738281 0.527344 41.113281 C 0.542969 41.128906 0.558594 41.140625 0.574219 41.148438 C 0.585938 41.15625 0.601562 41.171875 0.617188 41.203125 C 0.632812 41.21875 0.648438 41.230469 0.664062 41.238281 C 0.675781 41.246094 0.691406 41.261719 0.707031 41.292969 L 0.773438 41.359375 C 1.015625 41.613281 1.339844 41.953125 1.75 42.371094 C 2.164062 42.789062 2.667969 43.214844 3.265625 43.652344 C 4.253906 44.367188 5.300781 44.992188 6.410156 45.515625 C 7.519531 46.039062 8.664062 46.425781 9.847656 46.683594 L 9.847656 49.960938 C 9.847656 50.617188 10.175781 50.949219 10.832031 50.949219 L 15.054688 50.949219 C 15.773438 50.949219 16.132812 50.617188 16.132812 49.960938 L 16.132812 46.75 C 17.570312 46.496094 18.890625 46.0625 20.09375 45.457031 C 21.300781 44.851562 22.34375 44.09375 23.226562 43.179688 C 24.109375 42.265625 24.796875 41.222656 25.292969 40.046875 C 25.785156 38.871094 26.035156 37.582031 26.035156 36.171875 C 26.035156 34.617188 25.761719 33.292969 25.214844 32.199219 " fill-opacity="1" fill-rule="nonzero"/></g><g transform="matrix(1, 0, 0, 1, 39, 8)"><g clip-path="url(#7cebd77c9b)"><g fill="#000000" fill-opacity="1"><g transform="translate(0.310618, 33.200732)"><g><path d="M 10 -4.421875 C 10.820312 -4.421875 11.5 -4.488281 12.03125 -4.625 C 12.5625 -4.769531 12.988281 -4.957031 13.3125 -5.1875 C 13.632812 -5.425781 13.859375 -5.707031 13.984375 -6.03125 C 14.109375 -6.351562 14.171875 -6.710938 14.171875 -7.109375 C 14.171875 -7.953125 13.773438 -8.648438 12.984375 -9.203125 C 12.191406 -9.765625 10.828125 -10.367188 8.890625 -11.015625 C 8.046875 -11.304688 7.203125 -11.644531 6.359375 -12.03125 C 5.515625 -12.414062 4.757812 -12.898438 4.09375 -13.484375 C 3.425781 -14.066406 2.878906 -14.773438 2.453125 -15.609375 C 2.035156 -16.441406 1.828125 -17.453125 1.828125 -18.640625 C 1.828125 -19.828125 2.046875 -20.898438 2.484375 -21.859375 C 2.929688 -22.816406 3.566406 -23.628906 4.390625 -24.296875 C 5.210938 -24.960938 6.203125 -25.472656 7.359375 -25.828125 C 8.523438 -26.191406 9.84375 -26.375 11.3125 -26.375 C 13.039062 -26.375 14.535156 -26.1875 15.796875 -25.8125 C 17.066406 -25.445312 18.113281 -25.039062 18.9375 -24.59375 L 17.265625 -20.015625 C 16.546875 -20.390625 15.742188 -20.71875 14.859375 -21 C 13.984375 -21.28125 12.925781 -21.421875 11.6875 -21.421875 C 10.289062 -21.421875 9.289062 -21.226562 8.6875 -20.84375 C 8.082031 -20.46875 7.78125 -19.878906 7.78125 -19.078125 C 7.78125 -18.609375 7.890625 -18.210938 8.109375 -17.890625 C 8.328125 -17.566406 8.640625 -17.273438 9.046875 -17.015625 C 9.460938 -16.753906 9.9375 -16.519531 10.46875 -16.3125 C 11 -16.101562 11.585938 -15.882812 12.234375 -15.65625 C 13.578125 -15.164062 14.742188 -14.675781 15.734375 -14.1875 C 16.722656 -13.707031 17.546875 -13.144531 18.203125 -12.5 C 18.867188 -11.851562 19.363281 -11.09375 19.6875 -10.21875 C 20.007812 -9.351562 20.171875 -8.300781 20.171875 -7.0625 C 20.171875 -4.65625 19.328125 -2.789062 17.640625 -1.46875 C 15.953125 -0.144531 13.40625 0.515625 10 0.515625 C 8.863281 0.515625 7.835938 0.445312 6.921875 0.3125 C 6.003906 0.175781 5.191406 0.0078125 4.484375 -0.1875 C 3.773438 -0.382812 3.164062 -0.59375 2.65625 -0.8125 C 2.144531 -1.039062 1.71875 -1.253906 1.375 -1.453125 L 3.015625 -6.0625 C 3.785156 -5.644531 4.734375 -5.265625 5.859375 -4.921875 C 6.984375 -4.585938 8.363281 -4.421875 10 -4.421875 Z M 10 -4.421875 "/></g></g></g><g fill="#000000" fill-opacity="1"><g transform="translate(22.404865, 33.200732)"><g><path d="M 10.078125 -3.875 C 10.628906 -3.875 11.148438 -3.882812 11.640625 -3.90625 C 12.140625 -3.925781 12.535156 -3.960938 12.828125 -4.015625 L 12.828125 -8.21875 C 12.609375 -8.269531 12.273438 -8.316406 11.828125 -8.359375 C 11.378906 -8.410156 10.972656 -8.4375 10.609375 -8.4375 C 10.085938 -8.4375 9.59375 -8.40625 9.125 -8.34375 C 8.664062 -8.289062 8.265625 -8.175781 7.921875 -8 C 7.578125 -7.820312 7.304688 -7.582031 7.109375 -7.28125 C 6.910156 -6.988281 6.8125 -6.617188 6.8125 -6.171875 C 6.8125 -5.304688 7.101562 -4.707031 7.6875 -4.375 C 8.269531 -4.039062 9.066406 -3.875 10.078125 -3.875 Z M 9.640625 -20.09375 C 11.273438 -20.09375 12.632812 -19.90625 13.71875 -19.53125 C 14.8125 -19.15625 15.6875 -18.617188 16.34375 -17.921875 C 17.007812 -17.234375 17.476562 -16.390625 17.75 -15.390625 C 18.019531 -14.398438 18.15625 -13.300781 18.15625 -12.09375 L 18.15625 -0.5625 C 17.363281 -0.382812 16.257812 -0.179688 14.84375 0.046875 C 13.425781 0.285156 11.710938 0.40625 9.703125 0.40625 C 8.441406 0.40625 7.296875 0.289062 6.265625 0.0625 C 5.234375 -0.15625 4.347656 -0.515625 3.609375 -1.015625 C 2.867188 -1.523438 2.296875 -2.1875 1.890625 -3 C 1.492188 -3.820312 1.296875 -4.832031 1.296875 -6.03125 C 1.296875 -7.164062 1.523438 -8.128906 1.984375 -8.921875 C 2.441406 -9.722656 3.054688 -10.359375 3.828125 -10.828125 C 4.597656 -11.296875 5.476562 -11.632812 6.46875 -11.84375 C 7.46875 -12.0625 8.5 -12.171875 9.5625 -12.171875 C 10.28125 -12.171875 10.914062 -12.140625 11.46875 -12.078125 C 12.03125 -12.015625 12.484375 -11.929688 12.828125 -11.828125 L 12.828125 -12.34375 C 12.828125 -13.289062 12.539062 -14.046875 11.96875 -14.609375 C 11.40625 -15.179688 10.414062 -15.46875 9 -15.46875 C 8.0625 -15.46875 7.132812 -15.398438 6.21875 -15.265625 C 5.300781 -15.128906 4.503906 -14.9375 3.828125 -14.6875 L 3.125 -19.15625 C 3.445312 -19.257812 3.847656 -19.363281 4.328125 -19.46875 C 4.816406 -19.582031 5.34375 -19.679688 5.90625 -19.765625 C 6.476562 -19.859375 7.082031 -19.9375 7.71875 -20 C 8.351562 -20.0625 8.992188 -20.09375 9.640625 -20.09375 Z M 9.640625 -20.09375 "/></g></g></g><g fill="#000000" fill-opacity="1"><g transform="translate(42.974024, 33.200732)"><g><path d="M 2.421875 -24.4375 L 7.96875 -25.328125 L 7.96875 -19.5625 L 14.625 -19.5625 L 14.625 -14.953125 L 7.96875 -14.953125 L 7.96875 -8.078125 C 7.96875 -6.910156 8.171875 -5.976562 8.578125 -5.28125 C 8.984375 -4.582031 9.804688 -4.234375 11.046875 -4.234375 C 11.640625 -4.234375 12.253906 -4.289062 12.890625 -4.40625 C 13.523438 -4.519531 14.101562 -4.675781 14.625 -4.875 L 15.40625 -0.5625 C 14.726562 -0.289062 13.976562 -0.0546875 13.15625 0.140625 C 12.34375 0.347656 11.34375 0.453125 10.15625 0.453125 C 8.644531 0.453125 7.390625 0.25 6.390625 -0.15625 C 5.398438 -0.570312 4.609375 -1.144531 4.015625 -1.875 C 3.421875 -2.601562 3.003906 -3.488281 2.765625 -4.53125 C 2.535156 -5.570312 2.421875 -6.726562 2.421875 -8 Z M 2.421875 -24.4375 "/></g></g></g><g fill="#000000" fill-opacity="1"><g transform="translate(59.488873, 33.200732)"><g><path d="M 19.3125 -0.671875 C 18.363281 -0.398438 17.144531 -0.144531 15.65625 0.09375 C 14.175781 0.332031 12.613281 0.453125 10.96875 0.453125 C 9.3125 0.453125 7.929688 0.226562 6.828125 -0.21875 C 5.722656 -0.664062 4.847656 -1.289062 4.203125 -2.09375 C 3.554688 -2.90625 3.097656 -3.867188 2.828125 -4.984375 C 2.554688 -6.097656 2.421875 -7.328125 2.421875 -8.671875 L 2.421875 -19.5625 L 7.96875 -19.5625 L 7.96875 -9.34375 C 7.96875 -7.550781 8.203125 -6.257812 8.671875 -5.46875 C 9.140625 -4.675781 10.019531 -4.28125 11.3125 -4.28125 C 11.707031 -4.28125 12.128906 -4.296875 12.578125 -4.328125 C 13.023438 -4.367188 13.421875 -4.414062 13.765625 -4.46875 L 13.765625 -19.5625 L 19.3125 -19.5625 Z M 19.3125 -0.671875 "/></g></g></g><g fill="#000000" fill-opacity="1"><g transform="translate(81.397085, 33.200732)"><g><path d="M 8.21875 -3.984375 C 9.238281 -3.984375 9.957031 -4.082031 10.375 -4.28125 C 10.800781 -4.476562 11.015625 -4.863281 11.015625 -5.4375 C 11.015625 -5.875 10.738281 -6.257812 10.1875 -6.59375 C 9.644531 -6.9375 8.816406 -7.316406 7.703125 -7.734375 C 6.835938 -8.054688 6.050781 -8.390625 5.34375 -8.734375 C 4.632812 -9.085938 4.03125 -9.503906 3.53125 -9.984375 C 3.039062 -10.472656 2.65625 -11.050781 2.375 -11.71875 C 2.101562 -12.382812 1.96875 -13.191406 1.96875 -14.140625 C 1.96875 -15.972656 2.648438 -17.421875 4.015625 -18.484375 C 5.378906 -19.554688 7.253906 -20.09375 9.640625 -20.09375 C 10.828125 -20.09375 11.960938 -19.984375 13.046875 -19.765625 C 14.140625 -19.554688 15.007812 -19.328125 15.65625 -19.078125 L 14.6875 -14.765625 C 14.050781 -14.992188 13.351562 -15.191406 12.59375 -15.359375 C 11.832031 -15.535156 10.984375 -15.625 10.046875 -15.625 C 8.304688 -15.625 7.4375 -15.140625 7.4375 -14.171875 C 7.4375 -13.953125 7.472656 -13.753906 7.546875 -13.578125 C 7.617188 -13.398438 7.765625 -13.226562 7.984375 -13.0625 C 8.210938 -12.90625 8.519531 -12.734375 8.90625 -12.546875 C 9.289062 -12.367188 9.78125 -12.164062 10.375 -11.9375 C 11.59375 -11.488281 12.597656 -11.046875 13.390625 -10.609375 C 14.179688 -10.179688 14.804688 -9.710938 15.265625 -9.203125 C 15.722656 -8.691406 16.046875 -8.125 16.234375 -7.5 C 16.421875 -6.882812 16.515625 -6.171875 16.515625 -5.359375 C 16.515625 -3.421875 15.789062 -1.957031 14.34375 -0.96875 C 12.894531 0.0195312 10.84375 0.515625 8.1875 0.515625 C 6.445312 0.515625 5 0.363281 3.84375 0.0625 C 2.695312 -0.226562 1.898438 -0.472656 1.453125 -0.671875 L 2.375 -5.171875 C 3.320312 -4.796875 4.289062 -4.503906 5.28125 -4.296875 C 6.269531 -4.085938 7.25 -3.984375 8.21875 -3.984375 Z M 8.21875 -3.984375 "/></g></g></g><g fill="#000000" fill-opacity="1"><g transform="translate(99.436944, 33.200732)"><g><path d="M 20.90625 -9.828125 C 20.90625 -8.285156 20.679688 -6.875 20.234375 -5.59375 C 19.785156 -4.320312 19.140625 -3.234375 18.296875 -2.328125 C 17.453125 -1.421875 16.441406 -0.71875 15.265625 -0.21875 C 14.085938 0.269531 12.769531 0.515625 11.3125 0.515625 C 9.875 0.515625 8.566406 0.269531 7.390625 -0.21875 C 6.210938 -0.71875 5.203125 -1.421875 4.359375 -2.328125 C 3.515625 -3.234375 2.851562 -4.320312 2.375 -5.59375 C 1.90625 -6.875 1.671875 -8.285156 1.671875 -9.828125 C 1.671875 -11.359375 1.910156 -12.753906 2.390625 -14.015625 C 2.878906 -15.285156 3.550781 -16.363281 4.40625 -17.25 C 5.257812 -18.144531 6.273438 -18.84375 7.453125 -19.34375 C 8.628906 -19.84375 9.914062 -20.09375 11.3125 -20.09375 C 12.726562 -20.09375 14.023438 -19.84375 15.203125 -19.34375 C 16.378906 -18.84375 17.390625 -18.144531 18.234375 -17.25 C 19.078125 -16.363281 19.734375 -15.285156 20.203125 -14.015625 C 20.671875 -12.753906 20.90625 -11.359375 20.90625 -9.828125 Z M 15.25 -9.828125 C 15.25 -11.535156 14.90625 -12.878906 14.21875 -13.859375 C 13.539062 -14.835938 12.570312 -15.328125 11.3125 -15.328125 C 10.039062 -15.328125 9.054688 -14.835938 8.359375 -13.859375 C 7.671875 -12.878906 7.328125 -11.535156 7.328125 -9.828125 C 7.328125 -8.109375 7.671875 -6.742188 8.359375 -5.734375 C 9.054688 -4.734375 10.039062 -4.234375 11.3125 -4.234375 C 12.570312 -4.234375 13.539062 -4.734375 14.21875 -5.734375 C 14.90625 -6.742188 15.25 -8.109375 15.25 -9.828125 Z M 15.25 -9.828125 "/></g></g></g></g></g></svg>